<?xml version="1.0" standalone="no"?>
<!DOCTYPE svg PUBLIC "-//W3C//DTD SVG 20010904//EN"
 "http://www.w3.org/TR/2001/REC-SVG-20010904/DTD/svg10.dtd">
<svg version="1.0" xmlns="http://www.w3.org/2000/svg"
 width="2560.000000pt" height="2560.000000pt" viewBox="0 0 2560.000000 2560.000000"
 preserveAspectRatio="xMidYMid meet">
<metadata>
Created by potrace 1.11, written by Peter Selinger 2001-2013
</metadata>
<g transform="translate(0.000000,2560.000000) scale(0.100000,-0.100000)"
fill="#000000" stroke="none">
<path d="M12717 25464 c-1 -1 -128 -5 -282 -8 -154 -4 -300 -8 -325 -10 -25
-2 -103 -7 -175 -10 -71 -4 -141 -9 -155 -11 -14 -2 -59 -7 -100 -10 -227 -20
-319 -29 -397 -40 -24 -3 -61 -7 -83 -10 -22 -3 -58 -7 -80 -10 -22 -3 -57 -7
-77 -10 -21 -2 -54 -6 -73 -9 -19 -3 -53 -8 -75 -11 -22 -3 -92 -14 -155 -25
-63 -10 -133 -22 -155 -25 -22 -4 -53 -9 -70 -11 -16 -3 -97 -19 -180 -35 -82
-17 -161 -33 -175 -35 -91 -18 -269 -58 -391 -89 -79 -20 -152 -38 -161 -40
-30 -6 -211 -55 -278 -75 -36 -11 -121 -36 -190 -55 -69 -20 -150 -45 -180
-55 -30 -10 -131 -43 -225 -74 -163 -52 -226 -75 -415 -145 -47 -18 -89 -34
-95 -35 -5 -2 -19 -7 -30 -11 -11 -4 -54 -21 -95 -37 -41 -16 -88 -36 -105
-43 -16 -8 -97 -41 -180 -75 -82 -34 -193 -82 -245 -107 -90 -43 -139 -65
-150 -67 -22 -5 -642 -315 -708 -355 -29 -17 -55 -31 -58 -31 -2 0 -21 -10
-42 -23 -20 -13 -64 -38 -97 -56 -77 -42 -304 -176 -425 -252 -52 -32 -101
-62 -109 -65 -13 -7 -312 -202 -377 -247 -105 -72 -160 -111 -164 -117 -3 -4
-16 -13 -29 -20 -14 -7 -30 -17 -35 -21 -16 -13 -79 -60 -121 -89 -34 -24
-313 -237 -345 -263 -8 -7 -31 -23 -50 -37 -38 -27 -73 -55 -99 -81 -9 -8 -79
-67 -156 -129 -77 -63 -152 -126 -166 -140 -32 -30 -139 -126 -269 -240 -135
-120 -663 -650 -805 -810 -66 -74 -129 -144 -140 -155 -11 -12 -38 -43 -60
-70 -22 -26 -52 -60 -66 -74 -15 -14 -57 -64 -94 -111 -38 -47 -72 -86 -77
-88 -4 -2 -8 -10 -8 -18 0 -8 -3 -14 -8 -14 -4 0 -25 -23 -47 -51 -22 -28 -46
-58 -54 -66 -13 -14 -101 -127 -146 -189 -11 -15 -24 -32 -30 -38 -19 -21
-210 -282 -250 -341 -22 -33 -44 -64 -48 -70 -27 -33 -132 -188 -200 -295 -44
-69 -108 -168 -142 -220 -76 -118 -355 -595 -355 -608 0 -5 -7 -15 -15 -22 -9
-7 -14 -15 -11 -17 2 -2 -23 -52 -56 -111 -97 -172 -317 -627 -432 -892 -59
-135 -112 -256 -118 -270 -6 -14 -12 -29 -14 -35 -1 -5 -32 -86 -69 -180 -37
-93 -91 -240 -121 -325 -31 -85 -61 -171 -69 -190 -16 -44 -85 -249 -90 -270
-2 -8 -33 -112 -68 -230 -59 -196 -172 -613 -183 -678 -6 -31 -47 -217 -69
-307 -13 -54 -76 -384 -88 -460 -3 -16 -12 -70 -20 -120 -17 -98 -20 -118 -37
-245 -6 -47 -13 -97 -16 -111 -2 -15 -6 -47 -9 -70 -3 -24 -7 -60 -10 -79 -6
-48 -14 -125 -20 -187 -3 -29 -7 -77 -10 -105 -3 -29 -7 -73 -10 -98 -11 -116
-22 -278 -41 -605 -3 -60 -6 -301 -6 -535 0 -387 2 -487 17 -720 3 -41 7 -113
10 -160 6 -100 14 -198 20 -249 2 -20 6 -67 10 -106 3 -38 7 -86 10 -105 2
-19 7 -62 10 -95 8 -80 24 -214 30 -245 2 -14 11 -81 20 -150 20 -156 21 -157
40 -260 9 -47 22 -123 31 -170 31 -180 46 -258 64 -335 11 -45 21 -92 24 -105
3 -14 14 -68 26 -120 12 -52 23 -104 26 -114 4 -20 33 -135 59 -231 9 -33 18
-67 20 -75 32 -133 64 -246 146 -515 82 -266 255 -755 318 -900 5 -11 24 -58
42 -105 40 -105 137 -332 200 -467 16 -34 29 -64 29 -66 0 -3 37 -81 82 -173
45 -93 82 -171 83 -174 5 -19 134 -267 232 -445 18 -33 37 -71 43 -84 11 -26
135 -239 176 -303 13 -21 24 -39 24 -42 0 -5 70 -121 109 -181 14 -22 31 -48
36 -57 6 -9 44 -69 85 -133 41 -63 82 -126 90 -140 13 -22 41 -63 154 -225 17
-25 33 -47 36 -50 3 -3 25 -34 49 -70 46 -67 333 -450 380 -506 31 -38 60 -73
183 -224 51 -63 103 -126 115 -140 12 -14 30 -34 40 -46 10 -12 44 -50 75 -85
31 -35 66 -75 78 -89 114 -133 365 -394 589 -614 236 -231 252 -247 377 -356
133 -117 187 -166 218 -195 12 -11 86 -74 166 -138 80 -65 167 -137 194 -160
27 -23 88 -71 135 -106 47 -36 88 -67 91 -70 19 -22 418 -311 429 -311 5 0 11
-4 13 -8 3 -7 158 -117 243 -173 231 -150 569 -359 581 -359 2 0 28 -16 58
-35 30 -19 59 -35 64 -35 5 0 14 -6 20 -13 6 -6 39 -27 74 -45 66 -35 113 -60
293 -157 61 -32 155 -81 210 -108 173 -86 426 -207 430 -207 3 0 35 -14 72
-31 38 -17 82 -37 98 -44 155 -69 195 -85 204 -85 6 0 11 -5 11 -12 0 -6 3 -8
6 -5 4 4 19 0 33 -8 14 -7 94 -39 176 -71 83 -31 164 -63 180 -70 34 -15 181
-69 295 -107 41 -14 113 -40 160 -57 47 -17 105 -37 130 -45 25 -7 149 -45
277 -84 128 -39 330 -95 450 -126 120 -31 232 -60 248 -65 17 -5 46 -12 65
-15 19 -3 62 -12 95 -20 33 -8 94 -21 135 -30 41 -9 82 -18 90 -20 27 -6 214
-43 250 -49 19 -3 44 -8 55 -10 58 -11 326 -56 365 -61 25 -3 56 -8 70 -10 24
-4 66 -10 140 -19 66 -8 135 -17 160 -21 24 -3 79 -10 180 -20 25 -2 77 -7
115 -10 39 -3 84 -7 100 -10 34 -5 116 -12 260 -21 55 -3 120 -7 145 -9 368
-24 1189 -24 1450 0 19 2 89 6 155 10 132 7 202 12 255 20 19 2 69 7 110 10
41 4 86 8 100 10 14 2 57 6 95 9 63 6 97 10 175 21 14 2 61 9 106 15 44 6 89
12 100 14 10 2 48 7 84 11 36 4 83 10 105 15 22 5 60 12 85 15 25 4 50 8 55 9
13 4 54 11 220 42 77 14 149 27 160 30 44 9 183 40 375 83 47 11 137 33 200
50 207 54 315 82 332 86 18 4 340 102 458 140 41 13 147 49 235 80 88 31 173
61 188 65 32 10 204 75 257 97 19 8 44 18 55 23 11 4 47 18 80 30 33 13 74 28
90 35 17 7 50 20 75 30 25 10 77 33 117 52 40 18 75 33 77 33 3 0 35 13 70 30
36 16 91 40 123 54 103 44 530 252 628 306 17 9 89 48 160 85 72 38 163 88
203 112 41 24 78 43 83 43 5 0 9 5 9 10 0 6 4 10 9 10 14 0 243 135 416 245
250 159 318 204 495 329 91 63 173 121 184 128 145 101 729 564 854 678 21 19
72 64 113 100 276 242 731 691 969 956 234 260 265 296 374 429 59 72 126 152
149 179 23 27 84 104 135 170 51 67 99 129 107 139 8 9 15 21 15 26 0 5 4 11
8 13 10 4 114 142 183 243 30 44 56 82 59 85 7 7 60 84 137 200 35 52 68 102
73 110 58 86 215 337 272 434 39 66 78 129 86 139 8 9 11 17 6 17 -5 0 -4 4 1
8 33 23 355 635 535 1017 46 97 250 572 250 583 1 4 9 25 20 47 11 22 19 43
20 47 0 4 5 19 12 35 6 15 12 30 13 33 1 3 7 19 14 35 29 72 78 201 87 230 2
6 38 109 80 230 41 121 89 263 104 315 16 52 38 127 50 165 33 106 141 494
160 575 5 19 15 63 24 97 9 34 18 75 20 90 3 15 17 78 30 138 14 61 27 121 30
135 2 14 11 57 20 95 8 39 17 84 20 100 4 30 22 129 31 175 3 14 8 41 11 60 2
19 9 55 14 80 9 42 46 290 55 370 2 19 6 49 9 65 5 28 13 93 21 155 1 14 6 59
9 100 4 41 9 86 11 100 2 14 7 59 11 100 4 41 8 86 9 100 6 58 15 182 20 275
3 55 8 134 11 175 17 268 17 946 0 1280 -4 63 -9 153 -11 200 -6 110 -15 229
-20 271 -2 19 -6 63 -10 99 -3 36 -8 81 -10 100 -2 19 -7 62 -10 95 -7 81 -17
166 -21 190 -3 17 -8 47 -19 130 -2 11 -8 61 -14 110 -17 129 -20 150 -38 245
-9 47 -17 95 -18 107 -2 12 -6 34 -9 50 -3 15 -8 42 -11 58 -31 191 -113 563
-181 830 -35 138 -67 261 -70 275 -24 99 -251 800 -320 990 -37 99 -44 119
-62 160 -6 14 -43 106 -82 204 -39 98 -74 184 -78 190 -3 6 -7 16 -8 21 -11
57 -312 693 -448 950 -25 47 -67 124 -92 173 -53 99 -186 334 -194 342 -3 3
-11 16 -18 29 -8 13 -22 38 -31 55 -10 17 -37 63 -61 101 -24 39 -48 79 -54
90 -6 11 -45 72 -87 135 -41 63 -86 133 -99 155 -13 22 -28 45 -33 50 -5 6
-21 29 -35 52 -93 144 -474 670 -502 693 -3 3 -17 21 -30 40 -13 19 -27 37
-30 40 -3 3 -68 82 -144 175 -76 94 -145 175 -152 181 -8 6 -14 14 -14 18 0 4
-15 22 -32 40 -18 18 -42 44 -53 57 -284 335 -792 850 -1155 1169 -47 41 -92
82 -100 90 -8 8 -31 29 -51 45 -227 190 -365 302 -474 385 -60 46 -123 94
-140 107 -16 13 -34 27 -40 31 -110 81 -172 127 -225 163 -35 24 -70 50 -78
56 -7 7 -39 29 -70 50 -31 21 -59 40 -62 43 -12 13 -79 60 -86 60 -4 0 -22 11
-40 25 -18 14 -35 25 -38 25 -3 0 -14 7 -23 15 -28 23 -288 189 -368 235 -16
9 -84 49 -149 89 -66 39 -121 71 -124 71 -2 0 -16 8 -30 18 -15 11 -58 36 -97
57 -67 36 -145 80 -210 117 -50 29 -575 292 -645 323 -36 16 -108 49 -160 73
-100 46 -298 132 -305 132 -2 0 -29 11 -59 25 -30 14 -58 25 -61 25 -3 0 -27
9 -53 21 -26 12 -60 27 -77 34 -41 18 -360 135 -369 135 -3 0 -25 9 -49 19
-51 23 -610 205 -624 203 -1 0 -40 11 -85 25 -299 89 -713 192 -1008 249 -14
3 -65 14 -115 24 -93 20 -122 25 -190 35 -22 3 -53 9 -70 12 -16 3 -39 7 -50
8 -18 3 -104 18 -160 29 -12 2 -48 7 -80 11 -33 4 -67 9 -75 10 -8 2 -44 6
-80 10 -36 4 -72 9 -80 10 -38 7 -99 15 -145 20 -27 3 -68 7 -90 10 -47 5
-167 17 -210 20 -56 5 -170 16 -205 20 -19 3 -87 7 -150 10 -63 4 -140 8 -170
10 -30 2 -179 7 -330 10 -151 4 -297 7 -323 8 -27 1 -49 1 -50 1z m468 -1049
c105 -4 210 -8 235 -10 25 -2 92 -6 150 -9 118 -7 198 -14 250 -21 19 -3 64
-7 100 -9 68 -5 158 -14 200 -21 14 -2 81 -11 150 -20 69 -9 136 -18 150 -20
14 -2 47 -6 73 -10 27 -4 59 -8 70 -11 12 -2 74 -13 137 -24 190 -32 294 -50
312 -56 10 -3 30 -7 45 -10 16 -2 78 -15 138 -29 61 -13 121 -26 135 -29 14
-2 66 -14 115 -26 50 -12 97 -24 105 -26 8 -1 53 -13 100 -24 47 -12 92 -23
100 -25 131 -28 872 -261 957 -300 17 -8 35 -15 40 -15 13 0 321 -118 408
-156 22 -10 42 -18 45 -19 3 -1 16 -6 30 -12 14 -6 54 -23 90 -37 80 -33 79
-33 215 -96 61 -29 128 -59 150 -68 75 -30 530 -259 660 -332 72 -40 153 -85
180 -100 94 -51 460 -273 575 -349 64 -42 123 -80 132 -86 60 -37 188 -128
198 -140 7 -8 16 -15 21 -15 4 0 39 -22 76 -50 37 -27 88 -64 113 -82 171
-124 573 -441 664 -523 6 -5 40 -35 76 -65 36 -30 70 -60 75 -66 6 -5 51 -46
100 -89 219 -193 675 -647 870 -866 28 -31 79 -89 115 -129 36 -40 70 -78 75
-84 6 -6 49 -58 95 -116 47 -58 87 -107 90 -110 5 -4 97 -119 135 -168 6 -7
15 -18 20 -25 6 -7 44 -57 85 -112 71 -94 85 -112 120 -155 60 -74 510 -741
510 -756 0 -3 11 -20 24 -37 13 -18 33 -50 45 -72 11 -22 32 -58 46 -80 14
-22 28 -46 32 -54 3 -8 29 -53 58 -100 150 -251 395 -737 550 -1091 37 -85 75
-173 86 -195 31 -69 196 -494 219 -565 5 -14 31 -90 60 -170 44 -123 106 -310
114 -345 1 -5 13 -44 26 -85 13 -41 24 -79 26 -85 1 -5 12 -44 24 -85 12 -41
24 -82 25 -90 2 -8 4 -16 4 -17 1 -2 1 -5 2 -8 0 -2 7 -28 15 -57 8 -29 17
-60 19 -68 2 -8 21 -85 43 -171 22 -86 43 -170 45 -185 3 -16 19 -92 36 -169
37 -164 32 -140 67 -335 2 -14 13 -77 25 -140 11 -63 29 -178 40 -255 10 -77
21 -153 23 -170 16 -109 29 -220 41 -355 3 -30 8 -82 11 -115 9 -76 11 -105
19 -235 4 -58 8 -125 10 -149 24 -289 24 -1005 0 -1356 -2 -33 -7 -100 -10
-150 -6 -103 -38 -439 -50 -535 -3 -19 -7 -55 -10 -80 -5 -44 -15 -110 -20
-140 -3 -16 -13 -93 -20 -148 -9 -71 -17 -123 -45 -277 -16 -88 -32 -175 -35
-193 -27 -158 -160 -729 -205 -877 -5 -16 -11 -41 -14 -55 -7 -33 -131 -440
-156 -510 -10 -30 -45 -127 -75 -215 -51 -145 -168 -455 -199 -530 -7 -16 -19
-46 -26 -65 -7 -19 -31 -73 -52 -118 -21 -46 -38 -86 -38 -88 0 -2 -13 -33
-30 -69 -16 -36 -30 -67 -30 -69 0 -15 -257 -541 -333 -681 -128 -238 -273
-493 -295 -517 -8 -10 -12 -18 -8 -18 4 0 -2 -12 -13 -26 -12 -15 -21 -32 -21
-40 0 -7 -3 -14 -7 -16 -9 -3 -103 -145 -103 -153 0 -3 -5 -11 -10 -18 -6 -7
-63 -91 -126 -187 -64 -96 -120 -176 -125 -178 -5 -2 -9 -8 -9 -14 0 -6 -13
-27 -30 -48 -16 -21 -30 -43 -30 -49 0 -6 -3 -11 -7 -11 -5 0 -21 -21 -38 -48
-16 -26 -32 -49 -35 -52 -4 -3 -33 -41 -66 -85 -32 -44 -61 -82 -65 -85 -3 -3
-25 -32 -49 -65 -53 -73 -181 -236 -196 -250 -6 -5 -39 -46 -75 -90 -35 -44
-68 -85 -74 -91 -5 -6 -26 -31 -46 -55 -21 -24 -48 -56 -60 -70 -13 -14 -53
-59 -89 -99 -151 -170 -171 -191 -400 -425 -198 -202 -349 -346 -550 -525
-102 -91 -187 -167 -190 -170 -4 -5 -68 -57 -133 -110 -10 -8 -28 -23 -40 -34
-12 -10 -38 -30 -57 -45 -19 -14 -39 -31 -45 -37 -5 -6 -30 -26 -55 -45 -25
-18 -47 -36 -50 -39 -3 -3 -34 -28 -70 -55 -36 -27 -69 -53 -75 -57 -5 -5 -39
-31 -75 -59 -82 -64 -489 -349 -593 -415 -43 -27 -100 -63 -127 -80 -68 -44
-227 -143 -264 -164 -17 -9 -83 -48 -146 -85 -63 -37 -140 -81 -170 -97 -30
-16 -59 -34 -64 -39 -6 -5 -18 -9 -27 -9 -10 0 -19 -4 -21 -8 -9 -21 -760
-392 -794 -392 -8 0 -14 -4 -14 -10 0 -5 -7 -10 -15 -10 -8 0 -23 -4 -33 -9
-91 -50 -648 -273 -812 -326 -47 -15 -91 -32 -97 -38 -7 -5 -13 -7 -13 -3 0 3
-17 -1 -37 -10 -50 -20 -284 -95 -438 -139 -33 -9 -70 -21 -83 -26 -12 -5 -75
-23 -140 -40 -64 -17 -175 -46 -247 -65 -107 -29 -285 -71 -380 -90 -11 -2
-60 -13 -110 -23 -102 -23 -181 -38 -240 -47 -22 -3 -85 -15 -140 -25 -55 -11
-165 -28 -245 -40 -80 -11 -156 -22 -170 -24 -14 -2 -45 -6 -70 -10 -25 -3
-61 -8 -80 -10 -19 -3 -57 -7 -85 -10 -27 -2 -77 -7 -110 -9 -56 -5 -148 -14
-220 -22 -16 -1 -75 -6 -130 -9 -55 -4 -122 -8 -150 -10 -176 -13 -415 -19
-720 -19 -408 0 -655 9 -1000 40 -33 3 -80 7 -105 9 -25 2 -74 7 -110 10 -36
4 -85 8 -109 11 -37 3 -83 9 -226 29 -11 1 -47 6 -80 9 -33 4 -67 9 -75 11 -8
2 -37 7 -65 10 -27 4 -61 8 -75 11 -58 10 -457 84 -475 88 -11 2 -54 11 -95
20 -41 9 -116 25 -166 35 -145 31 -542 138 -754 202 -107 33 -202 61 -210 63
-27 7 -311 105 -465 160 -58 21 -376 145 -400 156 -11 5 -48 21 -82 35 -35 14
-86 36 -115 49 -29 13 -100 44 -158 69 -96 41 -359 164 -402 188 -39 20 -57
29 -143 72 -49 24 -106 53 -125 64 -19 11 -89 48 -155 83 -66 35 -124 66 -130
70 -5 4 -30 19 -55 32 -100 56 -371 218 -455 273 -49 32 -115 74 -145 93 -93
59 -165 106 -170 112 -3 4 -48 35 -100 70 -52 36 -97 67 -100 70 -3 3 -25 19
-50 35 -35 24 -143 104 -225 167 -5 5 -46 36 -90 69 -117 89 -141 108 -220
174 -40 33 -117 97 -171 142 -54 44 -114 94 -131 110 -52 47 -92 83 -183 163
-228 202 -643 616 -826 825 -44 50 -93 105 -109 124 -17 19 -42 47 -57 62 -15
16 -49 55 -75 86 -27 32 -56 67 -65 78 -9 11 -42 52 -73 90 -31 39 -66 81 -79
95 -12 14 -53 66 -91 115 -39 50 -75 97 -82 105 -7 8 -40 53 -75 100 -34 47
-65 87 -68 90 -4 3 -73 101 -154 218 -187 269 -365 548 -506 792 -5 8 -23 40
-41 70 -45 78 -59 102 -119 215 -29 55 -82 153 -116 218 -35 65 -64 120 -64
122 0 2 -40 86 -89 187 -48 101 -112 237 -141 303 -29 66 -67 154 -85 195 -63
142 -226 557 -240 610 -1 3 -4 12 -8 20 -13 32 -100 290 -132 390 -49 155 -99
314 -100 320 -1 3 -8 30 -17 60 -15 50 -75 275 -83 310 -2 8 -10 42 -19 75
-44 173 -135 611 -170 825 -3 19 -8 46 -11 60 -3 14 -10 59 -16 100 -15 103
-16 108 -23 165 -4 28 -13 95 -21 150 -8 55 -17 129 -20 165 -3 36 -7 81 -10
100 -2 19 -7 69 -10 110 -4 41 -8 86 -10 100 -2 14 -7 75 -10 135 -4 61 -8
133 -10 160 -15 236 -19 358 -19 680 -1 320 5 557 19 750 2 28 6 97 10 155 4
58 8 116 10 130 1 14 6 64 10 110 3 47 8 96 10 110 2 14 6 57 9 95 5 62 12
118 21 166 2 9 6 40 10 70 3 30 8 65 10 79 3 14 7 48 11 75 3 28 14 100 24
160 10 61 21 126 25 145 18 108 51 277 86 440 23 102 43 196 45 210 3 14 19
77 35 140 17 63 32 122 34 130 24 117 167 585 269 882 74 215 117 329 231 613
5 11 9 22 10 25 6 16 21 53 47 110 16 36 41 92 55 125 14 33 30 66 35 73 6 6
8 12 5 12 -8 0 45 113 181 390 163 331 264 519 407 758 6 9 28 48 50 85 22 38
45 76 50 85 87 148 363 564 377 570 4 2 8 8 8 13 0 12 355 498 380 519 3 3 21
25 40 50 39 50 61 77 105 129 17 20 62 74 100 121 67 82 103 124 155 180 27
29 39 43 165 185 69 78 232 248 362 380 66 67 326 317 379 365 200 181 278
249 355 311 35 28 66 54 69 57 3 4 52 45 110 92 58 47 114 93 124 102 11 10
23 18 27 18 4 0 14 6 21 13 62 62 668 496 826 592 9 6 42 27 74 48 314 206
923 541 1313 722 212 99 317 146 398 179 48 20 100 42 115 48 15 6 29 12 32
13 3 0 28 11 55 24 28 12 55 24 60 25 6 1 21 8 35 16 14 7 25 12 25 11 0 -1 7
0 15 3 404 147 809 285 880 300 14 3 70 19 125 36 55 16 109 32 120 35 11 2
74 18 140 36 66 17 127 32 135 34 8 2 53 13 100 25 47 11 96 23 110 26 14 3
33 7 42 10 18 5 46 11 93 19 17 3 37 8 45 10 8 2 27 7 43 10 63 12 85 17 142
30 33 7 76 16 95 19 45 7 257 44 290 50 29 5 120 20 135 21 30 3 132 18 149
21 11 2 40 6 65 9 87 10 126 15 151 20 23 4 51 7 205 20 73 7 165 16 202 20
18 2 83 7 145 11 62 3 133 8 158 10 25 2 153 6 285 10 132 4 241 7 242 8 5 4
372 -2 558 -9z"/>
<path d="M14270 20348 c-65 -10 -81 -13 -115 -27 -37 -14 -95 -43 -114 -56
-37 -25 -145 -141 -157 -169 -8 -17 -18 -38 -23 -46 -13 -20 -25 -53 -23 -62
1 -5 -2 -8 -8 -8 -5 0 -10 -5 -10 -11 0 -9 -194 -470 -254 -604 -13 -27 -36
-81 -51 -120 -16 -38 -32 -75 -37 -81 -6 -8 -46 -9 -131 -5 -174 9 -966 7
-1062 -2 -44 -4 -111 -10 -150 -13 -100 -9 -118 -11 -245 -29 -14 -2 -50 -7
-80 -10 -30 -4 -62 -9 -70 -10 -8 -2 -55 -11 -105 -20 -49 -9 -101 -19 -115
-21 -65 -11 -143 -29 -230 -51 -52 -13 -105 -26 -117 -29 -49 -10 -376 -120
-508 -171 -248 -96 -578 -268 -820 -428 -33 -22 -64 -43 -70 -48 -5 -4 -58
-43 -117 -86 -177 -131 -374 -304 -517 -455 -25 -27 -60 -63 -76 -80 -17 -17
-68 -76 -114 -131 -45 -55 -92 -111 -104 -125 -106 -125 -322 -453 -465 -705
-59 -106 -208 -412 -218 -450 -1 -5 -21 -53 -44 -105 -36 -82 -98 -244 -132
-345 -5 -16 -12 -37 -15 -45 -3 -8 -7 -19 -9 -25 -2 -5 -20 -62 -39 -125 -50
-157 -74 -240 -80 -272 -3 -15 -10 -39 -15 -53 -5 -14 -12 -39 -15 -56 -3 -16
-12 -48 -19 -72 -14 -42 -99 -445 -111 -522 -3 -22 -10 -65 -15 -95 -5 -30
-12 -73 -15 -95 -4 -22 -8 -47 -10 -55 -2 -8 -11 -71 -20 -140 -9 -69 -18
-136 -20 -150 -7 -47 -20 -162 -29 -280 -4 -41 -9 -95 -11 -120 -9 -89 -14
-167 -21 -300 -3 -74 -8 -164 -10 -200 -5 -85 -5 -838 0 -960 10 -240 23 -443
31 -505 2 -16 7 -66 10 -110 7 -98 15 -180 20 -203 2 -10 6 -45 10 -77 23
-192 36 -288 39 -294 2 -3 7 -28 10 -54 4 -26 11 -70 16 -97 5 -27 12 -71 16
-97 3 -26 17 -100 31 -163 13 -63 27 -128 29 -145 3 -16 9 -43 14 -60 5 -16
12 -43 14 -60 9 -51 90 -359 118 -445 64 -201 146 -439 183 -535 40 -102 53
-132 107 -255 37 -83 171 -355 199 -401 15 -26 42 -73 60 -105 18 -33 40 -72
49 -89 26 -47 171 -267 194 -296 12 -14 28 -36 36 -49 8 -12 23 -33 33 -46 12
-16 16 -29 10 -37 -5 -7 -22 -43 -38 -82 -16 -38 -42 -99 -58 -135 -16 -36
-30 -69 -31 -75 -1 -5 -4 -14 -8 -20 -3 -5 -52 -118 -108 -250 -56 -132 -113
-264 -126 -293 -13 -29 -24 -54 -24 -56 0 -2 -10 -25 -22 -52 -12 -27 -23 -51
-23 -54 -1 -3 -8 -21 -17 -40 -8 -19 -34 -80 -58 -135 -23 -55 -48 -113 -56
-130 -43 -97 -238 -557 -251 -595 -41 -119 -29 -274 31 -395 91 -182 271 -289
474 -281 97 4 105 6 179 35 92 36 162 89 219 166 29 39 82 125 82 135 1 11 27
72 256 606 130 303 236 556 236 562 0 7 4 12 10 12 5 0 9 3 8 7 -2 9 9 35 65
163 23 52 41 98 39 102 -4 15 15 8 32 -10 9 -11 42 -36 74 -58 31 -21 62 -43
68 -49 43 -38 285 -193 392 -252 37 -20 72 -40 78 -45 9 -6 -30 -106 -133
-345 -79 -185 -151 -366 -160 -402 -40 -173 20 -368 153 -492 100 -92 205
-135 340 -138 154 -4 271 44 379 153 90 91 65 40 391 802 l13 30 133 -33 c136
-35 459 -97 558 -107 30 -3 64 -8 75 -10 20 -4 123 -16 180 -22 17 -1 73 -5
125 -9 52 -3 111 -8 130 -10 56 -7 703 -8 845 -1 119 6 164 8 340 21 33 2 101
7 150 10 50 4 101 8 115 10 14 2 54 7 90 10 36 4 79 9 95 11 17 2 51 6 76 9
26 3 84 11 130 19 46 8 104 18 129 21 40 6 138 24 210 39 14 3 61 13 105 22
44 9 132 29 195 46 63 16 122 31 130 33 8 1 35 9 60 16 25 7 47 13 50 14 44
11 206 64 275 91 50 18 95 34 99 34 4 0 22 6 39 14 18 8 77 33 132 56 481 200
919 507 1196 838 219 263 366 555 374 742 9 236 -139 452 -355 516 -79 23 -89
25 -160 24 -67 0 -70 -1 -130 -14 -74 -17 -212 -99 -246 -145 -7 -9 -22 -27
-34 -41 -13 -14 -36 -54 -52 -90 -71 -155 -84 -178 -127 -240 -121 -174 -312
-339 -552 -478 -78 -45 -292 -152 -303 -152 -3 0 -34 -13 -69 -29 -58 -27
-412 -146 -461 -155 -12 -2 -28 -7 -36 -10 -8 -3 -26 -8 -40 -11 -14 -2 -72
-16 -130 -30 -58 -13 -123 -27 -145 -30 -22 -4 -56 -10 -75 -15 -19 -5 -53
-12 -75 -15 -22 -3 -51 -8 -65 -10 -24 -5 -39 -7 -125 -20 -22 -3 -51 -7 -65
-10 -14 -2 -52 -6 -85 -10 -33 -4 -71 -8 -85 -10 -32 -5 -245 -24 -330 -30
-344 -24 -971 -25 -1210 0 -25 2 -70 7 -100 10 -63 6 -110 12 -160 20 -19 3
-53 8 -75 10 -41 5 -327 64 -331 68 -1 1 16 43 37 92 22 50 43 99 48 110 5 11
21 46 35 78 14 32 26 60 26 62 0 2 11 29 25 59 14 30 25 57 25 60 0 2 13 33
29 68 16 35 115 266 221 513 105 248 197 464 205 480 7 17 54 127 105 245 50
118 98 229 105 245 8 17 25 58 39 92 15 35 37 87 51 117 14 30 25 57 25 60 0
3 11 29 24 58 14 29 106 244 206 478 100 234 187 439 195 455 7 17 25 58 39
92 14 35 37 87 51 117 14 30 25 57 25 60 0 3 11 29 24 58 13 29 79 181 146
338 67 157 128 299 135 315 7 17 134 311 280 655 147 344 275 643 285 665 10
22 30 69 45 105 15 36 35 83 45 105 10 22 70 164 135 315 65 151 125 293 135
315 10 22 145 337 300 700 155 363 290 678 300 700 10 22 165 384 345 805 179
421 337 788 349 815 12 28 60 139 107 248 46 108 86 197 90 197 6 0 27 -18
114 -99 120 -113 235 -273 265 -371 85 -280 434 -436 694 -309 90 44 103 52
161 108 58 56 116 158 138 244 24 91 8 266 -33 352 -92 199 -163 328 -200 365
-3 3 -21 28 -39 55 -123 178 -416 459 -613 588 -31 21 -60 42 -63 48 -6 9 25
87 95 244 152 343 454 1068 464 1117 33 156 -14 329 -122 450 -195 216 -536
229 -741 29 -32 -31 -69 -74 -83 -96 -14 -22 -112 -242 -218 -490 -106 -247
-202 -472 -215 -500 -12 -27 -46 -107 -75 -176 -30 -70 -58 -125 -64 -123 -61
20 -306 90 -401 114 -142 37 -127 33 -242 57 -51 10 -93 21 -93 25 0 6 89 217
140 333 5 11 23 54 40 95 35 83 53 124 75 173 20 44 45 162 45 217 0 158 -99
339 -234 427 -96 64 -241 98 -346 81z m-1243 -2217 c8 -1 8 -8 -2 -28 -7 -16
-32 -73 -55 -128 -46 -108 -74 -172 -95 -220 -7 -16 -39 -91 -70 -165 -54
-126 -68 -159 -108 -250 -8 -19 -54 -127 -102 -240 -48 -113 -93 -219 -100
-235 -8 -17 -23 -53 -35 -80 -38 -88 -51 -119 -71 -161 -10 -23 -19 -44 -19
-47 0 -4 -11 -30 -24 -59 -14 -29 -44 -98 -67 -153 -23 -55 -50 -120 -61 -145
-11 -25 -26 -58 -33 -75 -192 -449 -234 -549 -275 -640 -5 -11 -28 -65 -51
-120 -23 -55 -44 -104 -47 -110 -4 -5 -7 -14 -9 -20 -2 -9 -201 -475 -222
-520 -6 -11 -24 -54 -41 -95 -17 -41 -38 -88 -45 -105 -7 -16 -41 -95 -75
-175 -34 -80 -67 -158 -75 -175 -35 -78 -70 -160 -71 -165 0 -3 -8 -23 -18
-45 -10 -22 -36 -82 -58 -134 -21 -51 -48 -114 -60 -140 -11 -25 -26 -59 -33
-76 -7 -16 -22 -51 -33 -76 -12 -25 -30 -68 -41 -96 -11 -28 -29 -70 -40 -94
-11 -24 -68 -156 -126 -294 -59 -137 -115 -269 -126 -292 -10 -23 -19 -44 -19
-47 0 -3 -11 -30 -25 -61 -14 -30 -36 -80 -50 -110 -14 -31 -25 -58 -25 -60 0
-2 -13 -34 -30 -70 -16 -36 -30 -68 -30 -71 0 -3 -12 -31 -26 -62 -14 -31 -35
-79 -46 -107 -11 -27 -30 -72 -43 -100 -13 -27 -46 -104 -74 -171 -27 -66 -61
-146 -75 -177 -28 -60 -47 -106 -52 -122 -3 -11 -205 -479 -228 -530 -8 -16
-40 -91 -71 -165 -31 -74 -68 -160 -82 -190 -14 -30 -26 -59 -27 -65 -2 -10
-6 -20 -60 -138 -14 -32 -26 -60 -26 -62 0 -5 -15 -40 -66 -153 -13 -29 -24
-55 -24 -58 0 -2 -16 -42 -36 -87 -56 -126 -66 -150 -144 -332 -39 -93 -80
-188 -90 -210 -10 -22 -42 -98 -73 -169 l-55 -129 -57 114 c-69 139 -168 374
-223 529 -70 196 -172 546 -198 680 -3 14 -11 52 -19 85 -18 76 -53 251 -59
290 -2 17 -11 71 -20 120 -8 50 -18 107 -20 127 -3 21 -7 53 -10 70 -3 18 -8
56 -12 83 -6 50 -9 75 -19 150 -9 74 -17 166 -31 350 -3 50 -8 110 -9 135 -19
243 -26 955 -12 1200 4 69 10 161 12 205 11 196 29 392 49 550 22 164 28 214
32 235 9 55 35 217 40 250 3 19 21 107 40 195 19 88 37 171 40 185 3 14 16 67
30 119 14 51 28 104 30 118 7 39 99 327 148 463 139 388 341 779 564 1090 127
176 191 250 428 495 16 17 56 52 89 79 33 28 68 58 78 68 58 59 330 244 497
338 85 48 322 160 420 197 64 25 251 90 280 98 8 3 31 9 50 14 19 5 69 18 110
29 91 25 356 79 425 86 28 4 64 8 80 11 76 13 94 15 155 20 36 3 88 8 115 10
28 3 115 8 195 11 80 4 146 7 147 8 3 2 380 -1 400 -3z m1258 -121 c232 -43
595 -137 595 -154 0 -5 -32 -80 -55 -131 -8 -16 -60 -138 -116 -270 -56 -132
-110 -258 -119 -280 -10 -22 -73 -168 -140 -325 -67 -157 -130 -303 -140 -325
-9 -22 -34 -79 -54 -128 -20 -48 -45 -106 -55 -130 -11 -23 -32 -71 -46 -107
-15 -36 -40 -93 -56 -128 -16 -35 -29 -66 -29 -68 0 -3 -8 -24 -19 -47 -10
-23 -46 -107 -80 -187 -34 -80 -68 -158 -76 -175 -7 -16 -34 -79 -60 -140 -25
-60 -53 -125 -61 -142 -8 -18 -21 -48 -28 -65 -8 -18 -55 -128 -105 -245 -49
-116 -99 -232 -110 -257 -12 -25 -21 -47 -21 -50 0 -3 -12 -31 -26 -63 -32
-70 -37 -81 -114 -263 -34 -80 -67 -158 -75 -175 -7 -16 -61 -142 -120 -280
-59 -137 -113 -263 -120 -280 -7 -16 -34 -79 -60 -140 -25 -60 -52 -123 -60
-140 -7 -16 -95 -221 -195 -455 -100 -234 -188 -438 -195 -455 -10 -23 -212
-495 -274 -640 -16 -38 -30 -70 -54 -125 -13 -30 -50 -116 -81 -190 -32 -74
-70 -163 -87 -198 -16 -35 -29 -67 -29 -71 0 -4 -6 -21 -14 -37 -21 -42 -487
-1127 -490 -1139 -1 -5 -4 -14 -8 -20 -3 -5 -153 -354 -333 -775 -180 -421
-333 -778 -341 -795 -7 -16 -56 -130 -108 -252 -52 -122 -101 -234 -108 -248
-14 -26 -14 -26 -39 -7 -13 10 -44 30 -69 44 -63 37 -315 214 -349 246 -16 15
-57 52 -91 82 -92 81 -90 78 -81 103 11 27 481 1125 509 1187 11 25 145 338
297 695 153 358 286 668 295 690 10 22 36 83 58 135 22 52 50 116 62 142 11
26 21 50 21 53 0 2 16 40 35 82 20 43 44 98 54 123 15 38 62 147 135 315 10
22 19 45 21 50 2 9 181 422 222 515 9 19 17 40 18 45 3 10 416 973 433 1010 6
11 62 144 127 295 64 151 126 298 139 325 12 28 39 91 60 140 20 50 47 113 60
141 13 27 33 73 44 101 11 28 29 70 40 94 11 24 38 89 61 144 23 55 48 114 55
130 31 70 55 126 95 220 23 55 52 123 65 150 12 28 39 91 60 140 20 50 48 113
61 142 13 28 24 55 24 59 0 4 12 32 27 63 15 31 27 59 28 62 0 5 16 43 71 167
13 29 24 55 24 57 0 2 12 30 26 62 44 99 49 111 154 358 56 132 112 263 125
291 13 27 33 73 44 101 11 28 29 70 40 94 11 24 65 152 121 284 56 132 110
258 120 280 10 22 43 101 75 175 31 74 68 158 81 187 13 28 24 55 24 58 0 3 9
25 19 48 10 23 33 73 50 111 17 38 31 73 31 78 0 20 32 56 48 53 9 -2 71 -13
137 -25z"/>
</g>
</svg>
